<svg width="41" height="40" viewBox="0 0 41 40" fill="none" xmlns="http://www.w3.org/2000/svg">
<mask id="path-1-outside-1_782_11856" maskUnits="userSpaceOnUse" x="0" y="-0.542969" width="41" height="41" fill="black">
<rect fill="white" y="-0.542969" width="41" height="41"/>
<path d="M9.05279 39.457C7.50482 39.457 5.97541 39.4496 4.50539 39.431C3.48826 39.4199 2.6159 39.0598 1.98112 38.3879C1.35376 37.7272 1.00853 36.7917 1.00853 35.7523C1.00111 29.8796 1.00482 24.085 1.00853 18.6578C1.00853 18.4165 1.00482 18.1678 1.00482 17.9302C0.997393 17.1989 0.989969 16.4453 1.05308 15.714C1.12361 14.8751 1.49111 14.0992 2.09619 13.5239C2.70128 12.9485 3.48826 12.6255 4.31607 12.6107C5.92344 12.5884 7.5605 12.5772 9.179 12.5772C10.7789 12.5772 12.4049 12.5884 14.0122 12.6107C14.8586 12.6218 15.6604 12.9559 16.2692 13.5461C16.8743 14.1364 17.2418 14.9308 17.2975 15.7808C17.3421 16.4527 17.3383 17.1432 17.3309 17.8114C17.3309 18.0416 17.3272 18.2791 17.3272 18.513C17.3309 20.1835 17.3309 21.8836 17.3272 23.5281C17.3272 24.1889 17.3272 24.8497 17.3272 25.5067V26.3717L17.7207 26.3011C18.8863 26.097 19.6102 25.2469 19.6139 24.0887C19.6176 23.0938 19.6176 22.0841 19.6139 21.1078C19.6139 19.9051 19.6102 18.6652 19.6176 17.4439C19.625 15.8514 20.6644 14.5818 22.1976 14.2848C22.4203 14.2403 22.6542 14.2329 22.9214 14.2217C23.0551 14.218 23.1961 14.2106 23.3446 14.1995L23.6564 14.1772V13.3494C23.6564 12.4362 23.6564 11.5267 23.6564 10.6135C23.6564 8.48644 23.6527 6.28884 23.6602 4.12465C23.6639 2.31683 24.6921 0.954461 26.3403 0.560972C26.6188 0.494153 26.9454 0.460743 27.3018 0.460743C29.247 0.460743 30.9546 0.457031 32.5322 0.457031C33.8797 0.457031 35.1307 0.457031 36.3521 0.464456C38.1896 0.47188 39.6113 1.58924 39.8897 3.24487C39.9937 3.86851 39.9937 4.50329 39.9937 5.1789C39.9937 5.43133 39.9937 5.69118 39.9974 5.94732C40.0048 6.21831 39.9974 6.50044 39.99 6.77142C39.9863 6.97188 39.9788 7.17605 39.9788 7.38393C39.9788 10.8437 39.9788 14.3034 39.9788 17.7631V21.0707C39.9788 21.3342 39.9788 21.6015 39.9788 21.8651C39.9788 22.4479 39.9826 23.053 39.9751 23.6432C39.9566 25.8705 38.5125 27.3071 36.2927 27.3108C34.741 27.3108 33.193 27.3145 31.6413 27.3145C30.1156 27.3145 28.705 27.3145 27.3278 27.3108C25.1413 27.3071 23.6676 25.8445 23.6564 23.6692C23.649 21.9059 23.649 20.1092 23.6527 18.3757C23.6527 17.6035 23.6527 16.8351 23.6527 16.063V15.2797L23.3743 15.2352C23.1999 15.2055 23.0254 15.1906 22.8583 15.1906C21.522 15.1906 20.5828 16.1335 20.5754 17.4847C20.5679 18.9251 20.5679 20.3876 20.5716 21.802C20.5716 22.4479 20.5716 23.0938 20.5716 23.7397C20.5716 25.7183 19.755 26.78 17.8395 27.2848C17.5833 27.3517 17.3383 27.6598 17.3383 27.9159C17.3346 28.9293 17.3346 29.9576 17.3383 30.9525C17.3421 31.9213 17.3421 32.9199 17.3383 33.9073C17.3383 34.1115 17.3383 34.3157 17.3421 34.5161C17.3458 35.24 17.3532 35.9862 17.2344 36.6878C16.9671 38.2914 15.5788 39.4273 13.8563 39.4422C12.2081 39.4496 10.5933 39.457 9.05279 39.457ZM1.96627 34.9356C1.96627 35.0581 1.96627 35.1769 1.96627 35.2957C1.96256 35.5555 1.96256 35.8006 1.96998 36.053C2.01081 37.4005 3.07992 38.4622 4.40516 38.4696C5.86775 38.477 7.41573 38.4807 9.00082 38.4807C10.5636 38.4807 12.1784 38.477 13.9343 38.4696C15.0479 38.4659 16.0279 37.69 16.2655 36.6246C16.3509 36.2423 16.3658 35.8488 16.3769 35.4702C16.3843 35.3031 16.388 35.1324 16.4029 34.9616L16.4289 34.6052H1.96627V34.9356ZM1.98483 33.6104H16.3509V27.3071H16.0168C15.679 27.3071 15.3412 27.3071 15.0071 27.3071C14.6767 27.3071 14.3463 27.3071 14.016 27.3071C13.3403 27.3071 12.8206 27.3034 12.3269 27.2997H12.3046C11.8629 27.2997 11.603 27.4779 11.4434 27.8899C11.0128 29.0036 9.9697 29.7274 8.7818 29.7274C8.52195 29.7274 8.2621 29.6903 8.00596 29.6235C7.34148 29.4416 6.78837 29.0593 6.40602 28.521C6.01995 27.979 5.83806 27.322 5.87147 26.6167C5.90116 26.0004 6.16101 25.3916 6.60276 24.9016C7.04451 24.4079 7.63103 24.0812 8.25096 23.9736C8.41801 23.9439 8.58877 23.929 8.75953 23.929C9.95856 23.929 11.0091 24.6455 11.4397 25.7517C11.603 26.1749 11.8703 26.3605 12.3121 26.3605C12.3269 26.3605 12.3455 26.3605 12.364 26.3605C12.6722 26.3531 13.01 26.3494 13.4257 26.3494C13.6633 26.3494 13.8972 26.3494 14.1347 26.3531C14.3723 26.3531 14.6099 26.3568 14.8475 26.3568H16.3398V18.4313H1.98483V33.6104ZM8.76695 24.8719C7.70528 24.8719 6.8292 25.7369 6.81436 26.8023C6.80693 27.3183 7.00368 27.8083 7.37118 28.1832C7.74611 28.5618 8.23983 28.7734 8.77067 28.7734H8.7818C9.85462 28.766 10.6936 27.9122 10.6936 26.8245C10.6936 25.7369 9.85091 24.8794 8.77438 24.8719H8.76695ZM24.6179 22.8043C24.6179 22.9268 24.6179 23.0456 24.6142 23.1643C24.6105 23.4242 24.6105 23.6692 24.6179 23.9216C24.6587 25.2617 25.7093 26.316 27.0122 26.3234C28.5008 26.3308 30.0117 26.3382 31.6376 26.3382C33.2041 26.3382 34.8375 26.3345 36.6268 26.3271C37.7181 26.3234 38.6796 25.5513 38.9172 24.4933C39.0025 24.1109 39.0174 23.7175 39.0322 23.3388C39.0397 23.1718 39.0434 23.001 39.0582 22.8302L39.0842 22.4702H24.6179V22.8043ZM24.655 21.4939H38.9951V6.29998H24.6476V14.2069H31.7007L31.2887 13.6723C31.2627 13.6389 31.2404 13.6129 31.2218 13.587C31.1847 13.5387 31.155 13.5016 31.1253 13.4645C30.9991 13.3085 30.8246 13.0041 31.0956 12.748C31.1921 12.6589 31.2924 12.6144 31.3963 12.6144C31.5262 12.6144 31.6673 12.6849 31.8046 12.8148C32.3132 13.3048 32.8329 13.8208 33.3526 14.348C33.4788 14.4742 33.6533 14.7192 33.4454 14.9456C32.8849 15.5507 32.2835 16.1409 31.6636 16.7089C31.6005 16.7683 31.5225 16.798 31.4297 16.798C31.2998 16.798 31.1624 16.7349 31.0659 16.6309C30.9137 16.4639 30.91 16.2189 31.0622 16.0147C31.1068 15.9553 31.1476 15.8996 31.1996 15.8328L31.2775 15.7289L31.6821 15.1943H24.655V21.4939ZM9.22355 13.5535C7.66444 13.5535 6.07192 13.561 4.36061 13.5721C3.1653 13.5795 2.14816 14.489 1.99597 15.6843C1.95513 16.011 1.96627 16.3414 1.97369 16.6643C1.9774 16.8054 1.98112 16.9539 1.98112 17.0987V17.4328H16.3658V17.0987C16.3658 16.9836 16.3658 16.8685 16.3658 16.7571C16.3658 16.5084 16.3695 16.2746 16.362 16.0333C16.3323 14.6672 15.2818 13.587 13.9751 13.5758C12.4606 13.561 10.8606 13.5535 9.22355 13.5535ZM31.9457 1.41477C30.368 1.41477 28.7607 1.41848 27.0308 1.42591C25.9394 1.42962 24.9706 2.19804 24.7256 3.24858C24.6365 3.63093 24.6216 4.02813 24.6068 4.4142C24.5993 4.58496 24.5919 4.75943 24.5808 4.93019L24.5548 5.29027H39.0174V4.95617C39.0174 4.81882 39.0211 4.68519 39.0248 4.55155C39.0322 4.25086 39.0359 3.96874 39.0137 3.67548C38.906 2.42077 37.8518 1.43333 36.6119 1.42962C35.1159 1.41848 33.5457 1.41477 31.9457 1.41477Z"/>
</mask>
<path d="M9.05279 39.457C7.50482 39.457 5.97541 39.4496 4.50539 39.431C3.48826 39.4199 2.6159 39.0598 1.98112 38.3879C1.35376 37.7272 1.00853 36.7917 1.00853 35.7523C1.00111 29.8796 1.00482 24.085 1.00853 18.6578C1.00853 18.4165 1.00482 18.1678 1.00482 17.9302C0.997393 17.1989 0.989969 16.4453 1.05308 15.714C1.12361 14.8751 1.49111 14.0992 2.09619 13.5239C2.70128 12.9485 3.48826 12.6255 4.31607 12.6107C5.92344 12.5884 7.5605 12.5772 9.179 12.5772C10.7789 12.5772 12.4049 12.5884 14.0122 12.6107C14.8586 12.6218 15.6604 12.9559 16.2692 13.5461C16.8743 14.1364 17.2418 14.9308 17.2975 15.7808C17.3421 16.4527 17.3383 17.1432 17.3309 17.8114C17.3309 18.0416 17.3272 18.2791 17.3272 18.513C17.3309 20.1835 17.3309 21.8836 17.3272 23.5281C17.3272 24.1889 17.3272 24.8497 17.3272 25.5067V26.3717L17.7207 26.3011C18.8863 26.097 19.6102 25.2469 19.6139 24.0887C19.6176 23.0938 19.6176 22.0841 19.6139 21.1078C19.6139 19.9051 19.6102 18.6652 19.6176 17.4439C19.625 15.8514 20.6644 14.5818 22.1976 14.2848C22.4203 14.2403 22.6542 14.2329 22.9214 14.2217C23.0551 14.218 23.1961 14.2106 23.3446 14.1995L23.6564 14.1772V13.3494C23.6564 12.4362 23.6564 11.5267 23.6564 10.6135C23.6564 8.48644 23.6527 6.28884 23.6602 4.12465C23.6639 2.31683 24.6921 0.954461 26.3403 0.560972C26.6188 0.494153 26.9454 0.460743 27.3018 0.460743C29.247 0.460743 30.9546 0.457031 32.5322 0.457031C33.8797 0.457031 35.1307 0.457031 36.3521 0.464456C38.1896 0.47188 39.6113 1.58924 39.8897 3.24487C39.9937 3.86851 39.9937 4.50329 39.9937 5.1789C39.9937 5.43133 39.9937 5.69118 39.9974 5.94732C40.0048 6.21831 39.9974 6.50044 39.99 6.77142C39.9863 6.97188 39.9788 7.17605 39.9788 7.38393C39.9788 10.8437 39.9788 14.3034 39.9788 17.7631V21.0707C39.9788 21.3342 39.9788 21.6015 39.9788 21.8651C39.9788 22.4479 39.9826 23.053 39.9751 23.6432C39.9566 25.8705 38.5125 27.3071 36.2927 27.3108C34.741 27.3108 33.193 27.3145 31.6413 27.3145C30.1156 27.3145 28.705 27.3145 27.3278 27.3108C25.1413 27.3071 23.6676 25.8445 23.6564 23.6692C23.649 21.9059 23.649 20.1092 23.6527 18.3757C23.6527 17.6035 23.6527 16.8351 23.6527 16.063V15.2797L23.3743 15.2352C23.1999 15.2055 23.0254 15.1906 22.8583 15.1906C21.522 15.1906 20.5828 16.1335 20.5754 17.4847C20.5679 18.9251 20.5679 20.3876 20.5716 21.802C20.5716 22.4479 20.5716 23.0938 20.5716 23.7397C20.5716 25.7183 19.755 26.78 17.8395 27.2848C17.5833 27.3517 17.3383 27.6598 17.3383 27.9159C17.3346 28.9293 17.3346 29.9576 17.3383 30.9525C17.3421 31.9213 17.3421 32.9199 17.3383 33.9073C17.3383 34.1115 17.3383 34.3157 17.3421 34.5161C17.3458 35.24 17.3532 35.9862 17.2344 36.6878C16.9671 38.2914 15.5788 39.4273 13.8563 39.4422C12.2081 39.4496 10.5933 39.457 9.05279 39.457ZM1.96627 34.9356C1.96627 35.0581 1.96627 35.1769 1.96627 35.2957C1.96256 35.5555 1.96256 35.8006 1.96998 36.053C2.01081 37.4005 3.07992 38.4622 4.40516 38.4696C5.86775 38.477 7.41573 38.4807 9.00082 38.4807C10.5636 38.4807 12.1784 38.477 13.9343 38.4696C15.0479 38.4659 16.0279 37.69 16.2655 36.6246C16.3509 36.2423 16.3658 35.8488 16.3769 35.4702C16.3843 35.3031 16.388 35.1324 16.4029 34.9616L16.4289 34.6052H1.96627V34.9356ZM1.98483 33.6104H16.3509V27.3071H16.0168C15.679 27.3071 15.3412 27.3071 15.0071 27.3071C14.6767 27.3071 14.3463 27.3071 14.016 27.3071C13.3403 27.3071 12.8206 27.3034 12.3269 27.2997H12.3046C11.8629 27.2997 11.603 27.4779 11.4434 27.8899C11.0128 29.0036 9.9697 29.7274 8.7818 29.7274C8.52195 29.7274 8.2621 29.6903 8.00596 29.6235C7.34148 29.4416 6.78837 29.0593 6.40602 28.521C6.01995 27.979 5.83806 27.322 5.87147 26.6167C5.90116 26.0004 6.16101 25.3916 6.60276 24.9016C7.04451 24.4079 7.63103 24.0812 8.25096 23.9736C8.41801 23.9439 8.58877 23.929 8.75953 23.929C9.95856 23.929 11.0091 24.6455 11.4397 25.7517C11.603 26.1749 11.8703 26.3605 12.3121 26.3605C12.3269 26.3605 12.3455 26.3605 12.364 26.3605C12.6722 26.3531 13.01 26.3494 13.4257 26.3494C13.6633 26.3494 13.8972 26.3494 14.1347 26.3531C14.3723 26.3531 14.6099 26.3568 14.8475 26.3568H16.3398V18.4313H1.98483V33.6104ZM8.76695 24.8719C7.70528 24.8719 6.8292 25.7369 6.81436 26.8023C6.80693 27.3183 7.00368 27.8083 7.37118 28.1832C7.74611 28.5618 8.23983 28.7734 8.77067 28.7734H8.7818C9.85462 28.766 10.6936 27.9122 10.6936 26.8245C10.6936 25.7369 9.85091 24.8794 8.77438 24.8719H8.76695ZM24.6179 22.8043C24.6179 22.9268 24.6179 23.0456 24.6142 23.1643C24.6105 23.4242 24.6105 23.6692 24.6179 23.9216C24.6587 25.2617 25.7093 26.316 27.0122 26.3234C28.5008 26.3308 30.0117 26.3382 31.6376 26.3382C33.2041 26.3382 34.8375 26.3345 36.6268 26.3271C37.7181 26.3234 38.6796 25.5513 38.9172 24.4933C39.0025 24.1109 39.0174 23.7175 39.0322 23.3388C39.0397 23.1718 39.0434 23.001 39.0582 22.8302L39.0842 22.4702H24.6179V22.8043ZM24.655 21.4939H38.9951V6.29998H24.6476V14.2069H31.7007L31.2887 13.6723C31.2627 13.6389 31.2404 13.6129 31.2218 13.587C31.1847 13.5387 31.155 13.5016 31.1253 13.4645C30.9991 13.3085 30.8246 13.0041 31.0956 12.748C31.1921 12.6589 31.2924 12.6144 31.3963 12.6144C31.5262 12.6144 31.6673 12.6849 31.8046 12.8148C32.3132 13.3048 32.8329 13.8208 33.3526 14.348C33.4788 14.4742 33.6533 14.7192 33.4454 14.9456C32.8849 15.5507 32.2835 16.1409 31.6636 16.7089C31.6005 16.7683 31.5225 16.798 31.4297 16.798C31.2998 16.798 31.1624 16.7349 31.0659 16.6309C30.9137 16.4639 30.91 16.2189 31.0622 16.0147C31.1068 15.9553 31.1476 15.8996 31.1996 15.8328L31.2775 15.7289L31.6821 15.1943H24.655V21.4939ZM9.22355 13.5535C7.66444 13.5535 6.07192 13.561 4.36061 13.5721C3.1653 13.5795 2.14816 14.489 1.99597 15.6843C1.95513 16.011 1.96627 16.3414 1.97369 16.6643C1.9774 16.8054 1.98112 16.9539 1.98112 17.0987V17.4328H16.3658V17.0987C16.3658 16.9836 16.3658 16.8685 16.3658 16.7571C16.3658 16.5084 16.3695 16.2746 16.362 16.0333C16.3323 14.6672 15.2818 13.587 13.9751 13.5758C12.4606 13.561 10.8606 13.5535 9.22355 13.5535ZM31.9457 1.41477C30.368 1.41477 28.7607 1.41848 27.0308 1.42591C25.9394 1.42962 24.9706 2.19804 24.7256 3.24858C24.6365 3.63093 24.6216 4.02813 24.6068 4.4142C24.5993 4.58496 24.5919 4.75943 24.5808 4.93019L24.5548 5.29027H39.0174V4.95617C39.0174 4.81882 39.0211 4.68519 39.0248 4.55155C39.0322 4.25086 39.0359 3.96874 39.0137 3.67548C38.906 2.42077 37.8518 1.43333 36.6119 1.42962C35.1159 1.41848 33.5457 1.41477 31.9457 1.41477Z" fill="#336E83"/>
<path d="M9.05279 39.457C7.50482 39.457 5.97541 39.4496 4.50539 39.431C3.48826 39.4199 2.6159 39.0598 1.98112 38.3879C1.35376 37.7272 1.00853 36.7917 1.00853 35.7523C1.00111 29.8796 1.00482 24.085 1.00853 18.6578C1.00853 18.4165 1.00482 18.1678 1.00482 17.9302C0.997393 17.1989 0.989969 16.4453 1.05308 15.714C1.12361 14.8751 1.49111 14.0992 2.09619 13.5239C2.70128 12.9485 3.48826 12.6255 4.31607 12.6107C5.92344 12.5884 7.5605 12.5772 9.179 12.5772C10.7789 12.5772 12.4049 12.5884 14.0122 12.6107C14.8586 12.6218 15.6604 12.9559 16.2692 13.5461C16.8743 14.1364 17.2418 14.9308 17.2975 15.7808C17.3421 16.4527 17.3383 17.1432 17.3309 17.8114C17.3309 18.0416 17.3272 18.2791 17.3272 18.513C17.3309 20.1835 17.3309 21.8836 17.3272 23.5281C17.3272 24.1889 17.3272 24.8497 17.3272 25.5067V26.3717L17.7207 26.3011C18.8863 26.097 19.6102 25.2469 19.6139 24.0887C19.6176 23.0938 19.6176 22.0841 19.6139 21.1078C19.6139 19.9051 19.6102 18.6652 19.6176 17.4439C19.625 15.8514 20.6644 14.5818 22.1976 14.2848C22.4203 14.2403 22.6542 14.2329 22.9214 14.2217C23.0551 14.218 23.1961 14.2106 23.3446 14.1995L23.6564 14.1772V13.3494C23.6564 12.4362 23.6564 11.5267 23.6564 10.6135C23.6564 8.48644 23.6527 6.28884 23.6602 4.12465C23.6639 2.31683 24.6921 0.954461 26.3403 0.560972C26.6188 0.494153 26.9454 0.460743 27.3018 0.460743C29.247 0.460743 30.9546 0.457031 32.5322 0.457031C33.8797 0.457031 35.1307 0.457031 36.3521 0.464456C38.1896 0.47188 39.6113 1.58924 39.8897 3.24487C39.9937 3.86851 39.9937 4.50329 39.9937 5.1789C39.9937 5.43133 39.9937 5.69118 39.9974 5.94732C40.0048 6.21831 39.9974 6.50044 39.99 6.77142C39.9863 6.97188 39.9788 7.17605 39.9788 7.38393C39.9788 10.8437 39.9788 14.3034 39.9788 17.7631V21.0707C39.9788 21.3342 39.9788 21.6015 39.9788 21.8651C39.9788 22.4479 39.9826 23.053 39.9751 23.6432C39.9566 25.8705 38.5125 27.3071 36.2927 27.3108C34.741 27.3108 33.193 27.3145 31.6413 27.3145C30.1156 27.3145 28.705 27.3145 27.3278 27.3108C25.1413 27.3071 23.6676 25.8445 23.6564 23.6692C23.649 21.9059 23.649 20.1092 23.6527 18.3757C23.6527 17.6035 23.6527 16.8351 23.6527 16.063V15.2797L23.3743 15.2352C23.1999 15.2055 23.0254 15.1906 22.8583 15.1906C21.522 15.1906 20.5828 16.1335 20.5754 17.4847C20.5679 18.9251 20.5679 20.3876 20.5716 21.802C20.5716 22.4479 20.5716 23.0938 20.5716 23.7397C20.5716 25.7183 19.755 26.78 17.8395 27.2848C17.5833 27.3517 17.3383 27.6598 17.3383 27.9159C17.3346 28.9293 17.3346 29.9576 17.3383 30.9525C17.3421 31.9213 17.3421 32.9199 17.3383 33.9073C17.3383 34.1115 17.3383 34.3157 17.3421 34.5161C17.3458 35.24 17.3532 35.9862 17.2344 36.6878C16.9671 38.2914 15.5788 39.4273 13.8563 39.4422C12.2081 39.4496 10.5933 39.457 9.05279 39.457ZM1.96627 34.9356C1.96627 35.0581 1.96627 35.1769 1.96627 35.2957C1.96256 35.5555 1.96256 35.8006 1.96998 36.053C2.01081 37.4005 3.07992 38.4622 4.40516 38.4696C5.86775 38.477 7.41573 38.4807 9.00082 38.4807C10.5636 38.4807 12.1784 38.477 13.9343 38.4696C15.0479 38.4659 16.0279 37.69 16.2655 36.6246C16.3509 36.2423 16.3658 35.8488 16.3769 35.4702C16.3843 35.3031 16.388 35.1324 16.4029 34.9616L16.4289 34.6052H1.96627V34.9356ZM1.98483 33.6104H16.3509V27.3071H16.0168C15.679 27.3071 15.3412 27.3071 15.0071 27.3071C14.6767 27.3071 14.3463 27.3071 14.016 27.3071C13.3403 27.3071 12.8206 27.3034 12.3269 27.2997H12.3046C11.8629 27.2997 11.603 27.4779 11.4434 27.8899C11.0128 29.0036 9.9697 29.7274 8.7818 29.7274C8.52195 29.7274 8.2621 29.6903 8.00596 29.6235C7.34148 29.4416 6.78837 29.0593 6.40602 28.521C6.01995 27.979 5.83806 27.322 5.87147 26.6167C5.90116 26.0004 6.16101 25.3916 6.60276 24.9016C7.04451 24.4079 7.63103 24.0812 8.25096 23.9736C8.41801 23.9439 8.58877 23.929 8.75953 23.929C9.95856 23.929 11.0091 24.6455 11.4397 25.7517C11.603 26.1749 11.8703 26.3605 12.3121 26.3605C12.3269 26.3605 12.3455 26.3605 12.364 26.3605C12.6722 26.3531 13.01 26.3494 13.4257 26.3494C13.6633 26.3494 13.8972 26.3494 14.1347 26.3531C14.3723 26.3531 14.6099 26.3568 14.8475 26.3568H16.3398V18.4313H1.98483V33.6104ZM8.76695 24.8719C7.70528 24.8719 6.8292 25.7369 6.81436 26.8023C6.80693 27.3183 7.00368 27.8083 7.37118 28.1832C7.74611 28.5618 8.23983 28.7734 8.77067 28.7734H8.7818C9.85462 28.766 10.6936 27.9122 10.6936 26.8245C10.6936 25.7369 9.85091 24.8794 8.77438 24.8719H8.76695ZM24.6179 22.8043C24.6179 22.9268 24.6179 23.0456 24.6142 23.1643C24.6105 23.4242 24.6105 23.6692 24.6179 23.9216C24.6587 25.2617 25.7093 26.316 27.0122 26.3234C28.5008 26.3308 30.0117 26.3382 31.6376 26.3382C33.2041 26.3382 34.8375 26.3345 36.6268 26.3271C37.7181 26.3234 38.6796 25.5513 38.9172 24.4933C39.0025 24.1109 39.0174 23.7175 39.0322 23.3388C39.0397 23.1718 39.0434 23.001 39.0582 22.8302L39.0842 22.4702H24.6179V22.8043ZM24.655 21.4939H38.9951V6.29998H24.6476V14.2069H31.7007L31.2887 13.6723C31.2627 13.6389 31.2404 13.6129 31.2218 13.587C31.1847 13.5387 31.155 13.5016 31.1253 13.4645C30.9991 13.3085 30.8246 13.0041 31.0956 12.748C31.1921 12.6589 31.2924 12.6144 31.3963 12.6144C31.5262 12.6144 31.6673 12.6849 31.8046 12.8148C32.3132 13.3048 32.8329 13.8208 33.3526 14.348C33.4788 14.4742 33.6533 14.7192 33.4454 14.9456C32.8849 15.5507 32.2835 16.1409 31.6636 16.7089C31.6005 16.7683 31.5225 16.798 31.4297 16.798C31.2998 16.798 31.1624 16.7349 31.0659 16.6309C30.9137 16.4639 30.91 16.2189 31.0622 16.0147C31.1068 15.9553 31.1476 15.8996 31.1996 15.8328L31.2775 15.7289L31.6821 15.1943H24.655V21.4939ZM9.22355 13.5535C7.66444 13.5535 6.07192 13.561 4.36061 13.5721C3.1653 13.5795 2.14816 14.489 1.99597 15.6843C1.95513 16.011 1.96627 16.3414 1.97369 16.6643C1.9774 16.8054 1.98112 16.9539 1.98112 17.0987V17.4328H16.3658V17.0987C16.3658 16.9836 16.3658 16.8685 16.3658 16.7571C16.3658 16.5084 16.3695 16.2746 16.362 16.0333C16.3323 14.6672 15.2818 13.587 13.9751 13.5758C12.4606 13.561 10.8606 13.5535 9.22355 13.5535ZM31.9457 1.41477C30.368 1.41477 28.7607 1.41848 27.0308 1.42591C25.9394 1.42962 24.9706 2.19804 24.7256 3.24858C24.6365 3.63093 24.6216 4.02813 24.6068 4.4142C24.5993 4.58496 24.5919 4.75943 24.5808 4.93019L24.5548 5.29027H39.0174V4.95617C39.0174 4.81882 39.0211 4.68519 39.0248 4.55155C39.0322 4.25086 39.0359 3.96874 39.0137 3.67548C38.906 2.42077 37.8518 1.43333 36.6119 1.42962C35.1159 1.41848 33.5457 1.41477 31.9457 1.41477Z" stroke="#336E83" stroke-width="0.4" mask="url(#path-1-outside-1_782_11856)"/>
</svg>
