<svg width="37" height="38" viewBox="0 0 37 38" fill="none" xmlns="http://www.w3.org/2000/svg">
<path d="M28.1101 37.457C19.0541 37.457 9.99804 37.457 0.942025 37.457C0.367242 37.192 -0.00317275 36.7993 2.04827e-05 36.1097C0.00321372 26.985 2.04825e-05 17.8572 0.0127934 8.72927C0.0127934 8.52813 0.121363 8.2791 0.265059 8.13863C2.76536 5.66749 5.27844 3.20912 7.78193 0.74118C7.97672 0.549619 8.17151 0.457031 8.44613 0.457031C14.8645 0.463417 21.2829 0.460224 27.6981 0.463417C27.8418 0.463417 27.9887 0.466609 28.126 0.501729C28.7551 0.651785 29.0872 1.13069 29.0904 1.88416C29.0936 5.02576 29.0904 8.17055 29.0904 11.3122C29.0904 11.4462 29.0904 11.5771 29.0904 11.7112C29.2532 11.6123 29.3299 11.5069 29.4033 11.3984C29.9398 10.613 30.4411 9.80201 31.0223 9.05173C31.8238 8.01411 32.9223 7.59268 34.2155 7.81297C35.5567 8.04284 36.4316 8.8474 36.8563 10.1404C36.9042 10.2873 36.9489 10.4342 36.9968 10.5778C36.9968 10.9163 36.9968 11.2515 36.9968 11.5899C36.8052 12.4583 36.2943 13.1543 35.8058 13.8695C33.6503 17.0302 31.5045 20.1974 29.3458 23.355C29.167 23.6168 29.084 23.8722 29.0872 24.1914C29.0968 28.0929 29.084 31.9912 29.1 35.8926C29.1032 36.6557 28.8509 37.1952 28.1101 37.457ZM1.1432 9.1954C1.13681 9.35504 1.12404 9.46997 1.12404 9.5881C1.12404 18.3552 1.12404 27.1223 1.11765 35.8862C1.11765 36.2247 1.19748 36.3396 1.55513 36.3396C10.212 36.33 18.872 36.33 27.5289 36.3396C27.8706 36.3396 27.9759 36.2534 27.9759 35.899C27.9632 32.5499 27.9696 29.2039 27.9664 25.8548C27.9664 25.7431 27.9568 25.6281 27.944 25.427C27.6439 25.8708 27.4107 26.2443 27.1457 26.5987C27.0371 26.7456 26.8839 26.8892 26.7178 26.9563C25.284 27.5469 23.8439 28.1216 22.4069 28.6995C21.7268 28.9709 21.4075 28.7506 21.4107 28.0067C21.4138 26.455 21.4138 24.9002 21.4298 23.3486C21.4298 23.2017 21.4905 23.0357 21.5703 22.9144C23.6363 19.8653 25.7151 16.8259 27.778 13.7769C27.8897 13.6109 27.96 13.381 27.96 13.1831C27.9696 9.46359 27.9632 5.74092 27.9759 2.02145C27.9759 1.67025 27.8738 1.58086 27.5321 1.58086C21.4522 1.59043 15.3691 1.58724 9.28914 1.58724C9.16141 1.58724 9.03368 1.60001 8.87721 1.6064C8.87721 1.78199 8.87721 1.92567 8.87721 2.06614C8.87721 4.14777 8.87721 6.23259 8.87721 8.31422C8.87721 9.04854 8.72713 9.19221 7.98311 9.1954C5.85322 9.1954 3.72014 9.1954 1.59025 9.1954C1.44336 9.1954 1.30286 9.1954 1.1432 9.1954ZM30.3485 12.0018C27.8131 15.7308 25.3032 19.4248 22.7806 23.1378C24.0259 23.9743 25.2298 24.7853 26.4624 25.6122C28.9882 21.8927 31.4981 18.1988 34.0271 14.4761C32.7913 13.646 31.5875 12.8351 30.3485 12.0018ZM7.72126 2.3886C5.78616 4.29144 3.90215 6.14001 1.97344 8.03327C3.94367 8.03327 5.83087 8.03327 7.74042 8.03327C7.74042 6.21344 7.74042 4.42554 7.74042 2.63444C7.74042 2.57697 7.73084 2.5227 7.72126 2.3886ZM30.9808 11.0727C32.2198 11.906 33.4332 12.7201 34.6594 13.547C34.9564 13.1064 35.2501 12.6978 35.5184 12.27C36.1602 11.2483 35.892 9.9393 34.9148 9.26884C33.9217 8.58879 32.5838 8.80909 31.8621 9.78286C31.5651 10.1883 31.2937 10.613 30.9808 11.0727ZM25.4246 26.2731C24.4442 25.6154 23.5246 24.996 22.5634 24.3479C22.5634 25.4047 22.5634 26.3976 22.5634 27.4288C23.5022 27.0489 24.4251 26.6785 25.4246 26.2731Z" fill="#EE5B5B"/>
<path d="M10.4032 14.5399C10.4032 15.2486 10.4064 15.9606 10.4032 16.6694C10.4 17.2026 10.2148 17.4037 9.69746 17.4069C8.33714 17.4133 6.97683 17.4101 5.61651 17.4069C5.10878 17.4037 4.91719 17.209 4.91719 16.7045C4.914 15.2582 4.914 13.8151 4.91719 12.3688C4.91719 11.8676 5.11517 11.6696 5.6197 11.6665C6.98002 11.6633 8.34034 11.6633 9.70065 11.6665C10.202 11.6665 10.4032 11.8708 10.4032 12.3688C10.4064 13.0968 10.4032 13.8183 10.4032 14.5399ZM6.06675 12.8254C6.06675 13.9971 6.06675 15.1337 6.06675 16.2671C7.14926 16.2671 8.19983 16.2671 9.24402 16.2671C9.24402 15.105 9.24402 13.9684 9.24402 12.8254C8.17429 12.8254 7.1301 12.8254 6.06675 12.8254Z" fill="#EE5B5B"/>
<path d="M4.91384 22.7539C4.91384 22.0323 4.91064 21.3076 4.91384 20.586C4.91703 20.1039 5.11182 19.9028 5.5908 19.9028C6.96389 19.8996 8.33698 19.8996 9.70688 19.9028C10.1891 19.9028 10.3966 20.1039 10.3966 20.5764C10.3998 22.0323 10.3998 23.4914 10.3966 24.9472C10.3966 25.4261 10.1954 25.6273 9.71327 25.6305C8.34018 25.6368 6.96709 25.6368 5.59719 25.6305C5.09266 25.6273 4.91384 25.4357 4.91064 24.9217C4.91064 24.1969 4.91384 23.4754 4.91384 22.7539ZM9.25025 24.4971C9.25025 23.3413 9.25025 22.2047 9.25025 21.0458C8.17732 21.0458 7.12994 21.0458 6.05702 21.0458C6.05702 22.2047 6.05702 23.3413 6.05702 24.4971C7.12994 24.4971 8.18371 24.4971 9.25025 24.4971Z" fill="#EE5B5B"/>
<path d="M4.91402 30.9568C4.91402 30.2353 4.91082 29.5105 4.91402 28.789C4.91721 28.3292 5.112 28.1313 5.57502 28.1313C6.96088 28.1281 8.34355 28.1281 9.72941 28.1313C10.2084 28.1313 10.4 28.3324 10.4 28.8209C10.4032 30.264 10.4032 31.7103 10.4 33.1566C10.4 33.6578 10.1988 33.8526 9.69748 33.8526C8.32439 33.8558 6.9513 33.8558 5.5814 33.8526C5.11838 33.8526 4.9204 33.6546 4.91721 33.1981C4.91082 32.4478 4.91402 31.7007 4.91402 30.9568ZM9.25362 32.7192C9.25362 31.5602 9.25362 30.4236 9.25362 29.2615C8.18389 29.2615 7.13331 29.2615 6.05719 29.2615C6.05719 30.4205 6.05719 31.557 6.05719 32.7192C7.13012 32.7192 8.1807 32.7192 9.25362 32.7192Z" fill="#EE5B5B"/>
<path d="M18.0861 13.7583C16.3299 13.7583 14.5704 13.7583 12.8141 13.7551C12.6736 13.7551 12.4852 13.7647 12.4022 13.6848C12.2585 13.5507 12.0829 13.3368 12.102 13.174C12.1212 12.9952 12.3192 12.8068 12.482 12.6791C12.5778 12.6057 12.7598 12.6344 12.9035 12.6344C16.3714 12.6313 19.8392 12.6344 23.3039 12.6344C23.3646 12.6344 23.4252 12.6313 23.4859 12.6376C23.8723 12.66 24.115 12.8739 24.1214 13.19C24.1277 13.522 23.8691 13.7551 23.4699 13.7583C22.4705 13.7615 21.471 13.7615 20.4715 13.7615C19.6732 13.7583 18.8781 13.7583 18.0861 13.7583Z" fill="#EE5B5B"/>
<path d="M16.8186 29.0789C18.179 29.0789 19.5393 29.0757 20.8964 29.0821C21.3466 29.0853 21.6149 29.3695 21.535 29.7526C21.4648 30.0942 21.2093 30.2059 20.89 30.2091C20.3855 30.2123 19.8778 30.2091 19.3732 30.2091C17.2561 30.2091 15.139 30.2091 13.0187 30.2091C12.9229 30.2091 12.8271 30.2123 12.7313 30.2091C12.3258 30.1932 12.0735 29.9697 12.0767 29.6408C12.0799 29.3056 12.3321 29.0853 12.7377 29.0821C14.098 29.0757 15.4583 29.0789 16.8186 29.0789Z" fill="#EE5B5B"/>
<path d="M16.79 21.9828C15.5031 21.9828 14.2131 21.9828 12.9262 21.9828C12.8176 21.9828 12.709 21.9923 12.6005 21.9764C12.2875 21.9317 12.0991 21.7497 12.0768 21.4304C12.0576 21.1367 12.2907 20.8845 12.6132 20.8621C12.9262 20.843 13.2391 20.8557 13.5521 20.8557C15.9214 20.8557 18.294 20.8557 20.6634 20.8557C20.772 20.8557 20.8805 20.8493 20.9891 20.8589C21.3308 20.8877 21.5383 21.0984 21.5447 21.4081C21.5511 21.7337 21.334 21.954 20.9795 21.9828C20.8837 21.9923 20.7879 21.9859 20.6921 21.9859C19.3893 21.9827 18.0896 21.9828 16.79 21.9828Z" fill="#EE5B5B"/>
<path d="M15.3527 24.8038C14.5001 24.8038 13.6443 24.807 12.7917 24.8038C12.3351 24.8006 12.0668 24.5803 12.0764 24.2227C12.086 23.8811 12.3478 23.6704 12.7853 23.6704C14.5033 23.6672 16.2244 23.6672 17.9424 23.6704C18.415 23.6704 18.6577 23.8779 18.6513 24.2514C18.6417 24.6026 18.399 24.8006 17.952 24.8038C17.0834 24.807 16.218 24.8038 15.3527 24.8038Z" fill="#EE5B5B"/>
<path d="M15.3941 31.8979C16.2467 31.8979 17.1024 31.8947 17.955 31.8979C18.4053 31.8979 18.6448 32.0958 18.6512 32.4502C18.6543 32.8078 18.4149 33.0249 17.9742 33.0281C16.2307 33.0345 14.4872 33.0345 12.7437 33.0281C12.3349 33.0281 12.0827 32.8014 12.0763 32.4694C12.0699 32.1246 12.3317 31.9011 12.7596 31.8979C13.6378 31.8979 14.5159 31.8979 15.3941 31.8979Z" fill="#EE5B5B"/>
<path d="M15.3461 16.5773C14.4552 16.5773 13.5675 16.5773 12.6765 16.5773C12.3923 16.5773 12.1465 16.4528 12.1209 16.1718C12.1018 15.9771 12.2071 15.7472 12.3253 15.578C12.386 15.4886 12.5839 15.4662 12.7212 15.4662C14.4871 15.4598 16.2562 15.4598 18.022 15.463C18.4244 15.463 18.6447 15.6674 18.6511 16.0026C18.6575 16.3506 18.4212 16.5741 18.0156 16.5741C17.1247 16.5805 16.2338 16.5773 15.3461 16.5773Z" fill="#EE5B5B"/>
</svg>
