<svg width="20" height="21" viewBox="0 0 20 21" fill="none" xmlns="http://www.w3.org/2000/svg">
<path fill-rule="evenodd" clip-rule="evenodd" d="M3.75 18.582C3.75 18.2369 4.02982 17.957 4.375 17.957H15.625C15.9702 17.957 16.25 18.2369 16.25 18.582C16.25 18.9272 15.9702 19.207 15.625 19.207H4.375C4.02982 19.207 3.75 18.9272 3.75 18.582Z" fill="white"/>
<path fill-rule="evenodd" clip-rule="evenodd" d="M10 6.70703C8.96447 6.70703 8.125 7.5465 8.125 8.58203C8.125 9.61757 8.96447 10.457 10 10.457C11.0355 10.457 11.875 9.61757 11.875 8.58203C11.875 7.5465 11.0355 6.70703 10 6.70703ZM6.875 8.58203C6.875 6.85614 8.27411 5.45703 10 5.45703C11.7259 5.45703 13.125 6.85614 13.125 8.58203C13.125 10.3079 11.7259 11.707 10 11.707C8.27411 11.707 6.875 10.3079 6.875 8.58203Z" fill="white"/>
<path fill-rule="evenodd" clip-rule="evenodd" d="M10 2.95703C8.50816 2.95703 7.07742 3.54966 6.02252 4.60456C4.96763 5.65945 4.375 7.09019 4.375 8.58203C4.375 11.1695 5.8199 13.5256 7.34663 15.2813C8.10236 16.1504 8.85969 16.8511 9.42822 17.3343C9.65306 17.5254 9.84765 17.6819 10 17.8008C10.1523 17.6819 10.3469 17.5254 10.5718 17.3343C11.1403 16.8511 11.8976 16.1504 12.6534 15.2813C14.1801 13.5256 15.625 11.1695 15.625 8.58203C15.625 7.09019 15.0324 5.65945 13.9775 4.60456C12.9226 3.54966 11.4918 2.95703 10 2.95703ZM10 18.582C9.64159 19.0941 9.64141 19.0939 9.64121 19.0938L9.64069 19.0934L9.63923 19.0924L9.63461 19.0891L9.61872 19.0778C9.60521 19.0682 9.58595 19.0543 9.5613 19.0363C9.51202 19.0004 9.4412 18.9479 9.35192 18.8796C9.17342 18.7432 8.92077 18.5436 8.61866 18.2868C8.01531 17.7739 7.21014 17.0293 6.40337 16.1015C4.8051 14.2635 3.125 11.6196 3.125 8.58203C3.125 6.75867 3.84933 5.00998 5.13864 3.72067C6.42795 2.43136 8.17664 1.70703 10 1.70703C11.8234 1.70703 13.572 2.43136 14.8614 3.72067C16.1507 5.00998 16.875 6.75867 16.875 8.58203C16.875 11.6196 15.1949 14.2635 13.5966 16.1015C12.7899 17.0293 11.9847 17.7739 11.3813 18.2868C11.0792 18.5436 10.8266 18.7432 10.6481 18.8796C10.5588 18.9479 10.488 19.0004 10.4387 19.0363C10.4141 19.0543 10.3948 19.0682 10.3813 19.0778L10.3654 19.0891L10.3608 19.0924L10.3593 19.0934L10.3588 19.0938C10.3586 19.0939 10.3584 19.0941 10 18.582ZM10 18.582L10.3584 19.0941C10.1432 19.2447 9.85679 19.2447 9.64159 19.0941L10 18.582Z" fill="white"/>
</svg>
