<svg width="21" height="22" viewBox="0 0 21 22" fill="none" xmlns="http://www.w3.org/2000/svg">
<path fill-rule="evenodd" clip-rule="evenodd" d="M17.1437 2.08786C15.9737 2.29599 14.3964 2.81965 12.1827 3.55754L7.17141 5.22797C5.39139 5.82131 4.1021 6.25172 3.19146 6.63903C2.23939 7.04396 1.90071 7.32622 1.79071 7.51543C1.45191 8.09821 1.45191 8.81799 1.79071 9.40077C1.90071 9.58998 2.23939 9.87224 3.19146 10.2772C4.1021 10.6645 5.39139 11.0949 7.17141 11.6882C7.19952 11.6976 7.22727 11.7068 7.25468 11.716C7.74086 11.8777 8.11881 12.0034 8.44395 12.2211C8.75719 12.4308 9.02628 12.6998 9.23598 13.0131C9.45364 13.3382 9.57937 13.7162 9.74108 14.2024C9.7502 14.2298 9.75943 14.2575 9.7688 14.2856C10.3621 16.0656 10.7925 17.3549 11.1799 18.2656C11.5848 19.2176 11.867 19.5563 12.0563 19.6663C12.639 20.0051 13.3588 20.0051 13.9416 19.6663C14.1308 19.5563 14.4131 19.2176 14.818 18.2656C15.2053 17.3549 15.6357 16.0656 16.2291 14.2856L17.8995 9.27435C18.6374 7.06066 19.161 5.4833 19.3692 4.31332C19.5783 3.13777 19.4185 2.63843 19.1185 2.33849C18.8186 2.03855 18.3193 1.87874 17.1437 2.08786ZM16.8746 0.575001C18.1768 0.343351 19.3496 0.396444 20.2051 1.25194C21.0606 2.10744 21.1137 3.28025 20.882 4.58245C20.6518 5.87678 20.0903 7.56118 19.3794 9.69372L17.6745 14.8085C17.096 16.5439 16.6465 17.8924 16.232 18.867C15.8322 19.8071 15.3882 20.6027 14.7139 20.9948C13.6537 21.6111 12.3442 21.6111 11.284 20.9948C10.6096 20.6027 10.1657 19.8071 9.76583 18.867C9.35132 17.8924 8.90184 16.5439 8.32338 14.8085L8.31105 14.7715C8.10838 14.1636 8.04661 13.9986 7.95909 13.8679C7.86114 13.7216 7.73545 13.5959 7.58913 13.498C7.4584 13.4104 7.29348 13.3487 6.68549 13.146L6.64845 13.1336C4.91306 12.5552 3.56463 12.1057 2.59005 11.6912C1.64996 11.2914 0.854308 10.8474 0.462277 10.1731C-0.154093 9.11283 -0.154092 7.80337 0.462278 6.74314C0.854309 6.0688 1.64996 5.62484 2.59005 5.225C3.56464 4.81049 4.91309 4.36101 6.64852 3.78254L11.7633 2.0776C13.8959 1.36673 15.5803 0.805251 16.8746 0.575001ZM16.6807 4.78235C16.9791 5.08405 16.9764 5.57051 16.6747 5.86888L12.5771 9.92135C12.2754 10.2197 11.7889 10.217 11.4905 9.91533C11.1921 9.61363 11.1948 9.12717 11.4965 8.82879L15.5942 4.77633C15.8959 4.47795 16.3823 4.48065 16.6807 4.78235Z" fill="white"/>
</svg>
