<svg width="18" height="17" viewBox="0 0 18 17" fill="none" xmlns="http://www.w3.org/2000/svg">
<path fill-rule="evenodd" clip-rule="evenodd" d="M2.93141 1.03443C3.95323 -0.0413532 5.64341 0.160201 6.48807 1.35485L7.5389 2.84109C8.21451 3.79664 8.15744 5.12512 7.35113 5.97401L7.14708 6.18884C7.14651 6.19032 7.14592 6.19193 7.1453 6.19367C7.13452 6.22397 7.10725 6.32045 7.13408 6.50358C7.18971 6.8832 7.48275 7.6546 8.67246 8.90714C9.86592 10.1636 10.5898 10.4598 10.9253 10.5142C11.07 10.5377 11.1457 10.5173 11.1698 10.5088L11.5103 10.1503C12.2385 9.38372 13.3738 9.23269 14.2892 9.75958L15.8813 10.676C17.242 11.4592 17.5587 13.3752 16.4713 14.5201L15.2875 15.7664C14.918 16.1554 14.4142 16.4874 13.7917 16.5489C12.2718 16.6989 8.75082 16.5035 5.05967 12.6174C1.61537 8.9912 0.961051 5.83712 0.878338 4.2961L1.43342 4.26631L0.878338 4.2961C0.837471 3.53471 1.17687 2.88163 1.62341 2.41151L2.93141 1.03443ZM5.46742 2.07649C5.04046 1.47262 4.27343 1.43659 3.83774 1.89529L2.52974 3.27237C2.25358 3.56311 2.10868 3.89636 2.12654 4.22911C2.19407 5.48729 2.73589 8.35586 5.96599 11.7565C9.35281 15.3222 12.473 15.423 13.6689 15.3049C13.9053 15.2816 14.1486 15.1504 14.3811 14.9056L15.5649 13.6593C16.0756 13.1216 15.9417 12.1531 15.2577 11.7593L13.6656 10.8429C13.2384 10.597 12.7379 10.673 12.4167 11.0112L12.0371 11.4108L11.5978 10.9935C12.0371 11.4108 12.0365 11.4114 12.036 11.412L12.0348 11.4132L12.0323 11.4158L12.027 11.4211L12.0151 11.4329C12.0065 11.4412 11.9966 11.4504 11.9854 11.4602C11.963 11.4798 11.9353 11.5022 11.902 11.5259C11.8352 11.5732 11.7463 11.6253 11.6338 11.6696C11.4038 11.7604 11.1001 11.809 10.7249 11.7481C9.99362 11.6293 9.03519 11.1041 7.76614 9.768C6.49335 8.42799 6.00622 7.42822 5.89729 6.6848C5.84185 6.30641 5.88622 6.00341 5.96764 5.7746C6.00768 5.66208 6.05495 5.57236 6.09855 5.50423C6.12029 5.47025 6.14101 5.44181 6.15933 5.41866C6.16849 5.40708 6.17705 5.39683 6.18485 5.38787L6.19595 5.37538L6.20104 5.36985L6.20346 5.36726L6.20463 5.36601C6.20521 5.3654 6.20578 5.3648 6.64884 5.78562L6.20579 5.36479L6.4448 5.11316C6.81608 4.72227 6.87003 4.06028 6.51824 3.56273L5.46742 2.07649Z" fill="white"/>
</svg>
