<svg width="20" height="21" viewBox="0 0 20 21" fill="none" xmlns="http://www.w3.org/2000/svg">
<path fill-rule="evenodd" clip-rule="evenodd" d="M3.93141 3.03443C4.95323 1.95865 6.64341 2.1602 7.48807 3.35485L8.5389 4.84109C9.21451 5.79664 9.15744 7.12512 8.35113 7.97401L8.14708 8.18884C8.14651 8.19032 8.14592 8.19193 8.1453 8.19367C8.13452 8.22397 8.10725 8.32045 8.13408 8.50358C8.18971 8.8832 8.48275 9.6546 9.67246 10.9071C10.8659 12.1636 11.5898 12.4598 11.9253 12.5142C12.07 12.5377 12.1457 12.5173 12.1698 12.5088L12.5103 12.1503C13.2385 11.3837 14.3738 11.2327 15.2892 11.7596L16.8813 12.676C18.242 13.4592 18.5587 15.3752 17.4713 16.5201L16.2875 17.7664C15.918 18.1554 15.4142 18.4874 14.7917 18.5489C13.2718 18.6989 9.75082 18.5035 6.05967 14.6174C2.61537 10.9912 1.96105 7.83712 1.87834 6.2961L2.43342 6.26631L1.87834 6.2961C1.83747 5.53471 2.17687 4.88163 2.62341 4.41151L3.93141 3.03443ZM6.46742 4.07649C6.04046 3.47262 5.27343 3.43659 4.83774 3.89529L3.52974 5.27237C3.25358 5.56311 3.10868 5.89636 3.12654 6.22911C3.19407 7.48729 3.73589 10.3559 6.96599 13.7565C10.3528 17.3222 13.473 17.423 14.6689 17.3049C14.9053 17.2816 15.1486 17.1504 15.3811 16.9056L16.5649 15.6593C17.0756 15.1216 16.9417 14.1531 16.2577 13.7593L14.6656 12.8429C14.2384 12.597 13.7379 12.673 13.4167 13.0112L13.0371 13.4108L12.5978 12.9935C13.0371 13.4108 13.0365 13.4114 13.036 13.412L13.0348 13.4132L13.0323 13.4158L13.027 13.4211L13.0151 13.4329C13.0065 13.4412 12.9966 13.4504 12.9854 13.4602C12.963 13.4798 12.9353 13.5022 12.902 13.5259C12.8352 13.5732 12.7463 13.6253 12.6338 13.6696C12.4038 13.7604 12.1001 13.809 11.7249 13.7481C10.9936 13.6293 10.0352 13.1041 8.76614 11.768C7.49335 10.428 7.00622 9.42822 6.89729 8.6848C6.84185 8.30641 6.88622 8.00341 6.96764 7.7746C7.00768 7.66208 7.05495 7.57236 7.09855 7.50423C7.12029 7.47025 7.14101 7.44181 7.15933 7.41866C7.16849 7.40708 7.17705 7.39683 7.18485 7.38787L7.19595 7.37538L7.20104 7.36985L7.20346 7.36726L7.20463 7.36601C7.20521 7.3654 7.20578 7.3648 7.64884 7.78562L7.20579 7.36479L7.4448 7.11316C7.81608 6.72227 7.87003 6.06028 7.51824 5.56273L6.46742 4.07649Z" fill="white"/>
<path d="M11.0497 2.02291C11.1048 1.68216 11.4269 1.45102 11.7677 1.50618C11.7888 1.51022 11.8566 1.5229 11.8922 1.53082C11.9633 1.54666 12.0625 1.57104 12.1862 1.60706C12.4335 1.6791 12.779 1.79777 13.1937 1.98788C14.0239 2.36851 15.1287 3.03435 16.2752 4.18085C17.4217 5.32735 18.0876 6.43219 18.4682 7.26242C18.6583 7.6771 18.777 8.02261 18.849 8.26992C18.885 8.39359 18.9094 8.49278 18.9253 8.56389C18.9332 8.59945 18.939 8.628 18.943 8.64909L18.9478 8.67509C19.003 9.01583 18.7739 9.35126 18.4332 9.40642C18.0934 9.46143 17.7733 9.2314 17.7168 8.89226C17.7151 8.88316 17.7103 8.85869 17.7051 8.83562C17.6949 8.78946 17.6771 8.71628 17.6489 8.61948C17.5925 8.42587 17.4945 8.13809 17.3319 7.78336C17.0071 7.07477 16.4229 6.09628 15.3913 5.06473C14.3598 4.03318 13.3813 3.44902 12.6727 3.12416C12.318 2.96153 12.0302 2.86358 11.8366 2.80719C11.7398 2.779 11.6181 2.75107 11.572 2.74079C11.2328 2.68427 10.9946 2.36267 11.0497 2.02291Z" fill="white"/>
<path fill-rule="evenodd" clip-rule="evenodd" d="M11.2383 4.89877C11.3331 4.56688 11.6791 4.37469 12.011 4.46952L11.8393 5.07047C12.011 4.46952 12.0113 4.4696 12.0116 4.46969L12.0122 4.46987L12.0134 4.47023L12.0162 4.47105L12.0227 4.47297L12.0392 4.47811C12.0517 4.48213 12.0674 4.48736 12.0861 4.494C12.1236 4.50728 12.173 4.52617 12.2337 4.55217C12.3551 4.6042 12.521 4.68455 12.7248 4.80514C13.1326 5.04655 13.6895 5.44753 14.3436 6.10167C14.9978 6.75581 15.3987 7.31264 15.6401 7.72052C15.7607 7.92428 15.8411 8.09017 15.8931 8.21157C15.9191 8.27224 15.938 8.32171 15.9513 8.35914C15.9579 8.37785 15.9632 8.39354 15.9672 8.4061L15.9723 8.42259L15.9742 8.42905L15.975 8.43183L15.9754 8.43311L15.9756 8.43372C15.9757 8.43401 15.9758 8.43431 15.3748 8.60601L15.9758 8.43431C16.0706 8.7662 15.8784 9.11213 15.5465 9.20696C15.2174 9.30098 14.8746 9.11285 14.7763 8.78613L14.7732 8.77715C14.7688 8.76463 14.7596 8.73997 14.7442 8.70397C14.7133 8.63203 14.6574 8.51433 14.5644 8.35717C14.3786 8.04322 14.043 7.56885 13.4597 6.98555C12.8764 6.40226 12.4021 6.06667 12.0881 5.88086C11.9309 5.78785 11.8133 5.73194 11.7413 5.7011C11.7053 5.68567 11.6807 5.67648 11.6681 5.67204L11.6591 5.66896C11.3324 5.57072 11.1443 5.22785 11.2383 4.89877Z" fill="white"/>
</svg>
