<svg width="37" height="37" viewBox="0 0 37 37" fill="none" xmlns="http://www.w3.org/2000/svg">
<path d="M28.1101 37C19.0541 37 9.99804 37 0.942025 37C0.367242 36.735 -0.00317275 36.3423 2.04827e-05 35.6527C0.00321372 26.528 2.04825e-05 17.4001 0.0127934 8.27224C0.0127934 8.0711 0.121363 7.82207 0.265059 7.68159C2.76536 5.21046 5.27844 2.75209 7.78193 0.284149C7.97672 0.0925878 8.17151 0 8.44613 0C14.8645 0.00638537 21.2829 0.00319268 27.6981 0.00638537C27.8418 0.00638537 27.9887 0.00957805 28.126 0.0446976C28.7551 0.194754 29.0872 0.673656 29.0904 1.42713C29.0936 4.56873 29.0904 7.71352 29.0904 10.8551C29.0904 10.9892 29.0904 11.1201 29.0904 11.2542C29.2532 11.1552 29.3299 11.0499 29.4033 10.9413C29.9398 10.1559 30.4411 9.34498 31.0223 8.5947C31.8238 7.55708 32.9223 7.13565 34.2155 7.35594C35.5567 7.58581 36.4316 8.39037 36.8563 9.68341C36.9042 9.83027 36.9489 9.97713 36.9968 10.1208C36.9968 10.4592 36.9968 10.7945 36.9968 11.1329C36.8052 12.0013 36.2943 12.6973 35.8058 13.4125C33.6503 16.5732 31.5045 19.7404 29.3458 22.8979C29.167 23.1597 29.084 23.4151 29.0872 23.7344C29.0968 27.6359 29.084 31.5341 29.1 35.4356C29.1032 36.1986 28.8509 36.7382 28.1101 37ZM1.1432 8.73837C1.13681 8.89801 1.12404 9.01294 1.12404 9.13107C1.12404 17.8982 1.12404 26.6653 1.11765 35.4292C1.11765 35.7676 1.19748 35.8826 1.55513 35.8826C10.212 35.873 18.872 35.873 27.5289 35.8826C27.8706 35.8826 27.9759 35.7964 27.9759 35.442C27.9632 32.0928 27.9696 28.7469 27.9664 25.3978C27.9664 25.286 27.9568 25.1711 27.944 24.97C27.6439 25.4138 27.4107 25.7873 27.1457 26.1417C27.0371 26.2885 26.8839 26.4322 26.7178 26.4993C25.284 27.0899 23.8439 27.6646 22.4069 28.2425C21.7268 28.5138 21.4075 28.2936 21.4107 27.5497C21.4138 25.998 21.4138 24.4432 21.4298 22.8915C21.4298 22.7447 21.4905 22.5787 21.5703 22.4573C23.6363 19.4083 25.7151 16.3689 27.778 13.3199C27.8897 13.1539 27.96 12.924 27.96 12.726C27.9696 9.00656 27.9632 5.28389 27.9759 1.56441C27.9759 1.21322 27.8738 1.12382 27.5321 1.12382C21.4522 1.1334 15.3691 1.13021 9.28914 1.13021C9.16141 1.13021 9.03368 1.14298 8.87721 1.14937C8.87721 1.32496 8.87721 1.46863 8.87721 1.60911C8.87721 3.69074 8.87721 5.77556 8.87721 7.85719C8.87721 8.59151 8.72713 8.73518 7.98311 8.73837C5.85322 8.73837 3.72014 8.73837 1.59025 8.73837C1.44336 8.73837 1.30286 8.73837 1.1432 8.73837ZM30.3485 11.5447C27.8131 15.2738 25.3032 18.9677 22.7806 22.6808C24.0259 23.5173 25.2298 24.3282 26.4624 25.1551C28.9882 21.4357 31.4981 17.7417 34.0271 14.0191C32.7913 13.189 31.5875 12.378 30.3485 11.5447ZM7.72126 1.93157C5.78616 3.83441 3.90215 5.68298 1.97344 7.57624C3.94367 7.57624 5.83087 7.57624 7.74042 7.57624C7.74042 5.75641 7.74042 3.9685 7.74042 2.17741C7.74042 2.11994 7.73084 2.06567 7.72126 1.93157ZM30.9808 10.6157C32.2198 11.449 33.4332 12.2631 34.6594 13.09C34.9564 12.6494 35.2501 12.2407 35.5184 11.8129C36.1602 10.7913 35.892 9.48227 34.9148 8.8118C33.9217 8.13176 32.5838 8.35206 31.8621 9.32583C31.5651 9.7313 31.2937 10.1559 30.9808 10.6157ZM25.4246 25.816C24.4442 25.1583 23.5246 24.539 22.5634 23.8908C22.5634 24.9476 22.5634 25.9405 22.5634 26.9718C23.5022 26.5919 24.4251 26.2215 25.4246 25.816Z" fill="#EE5B5B"/>
<path d="M10.4034 14.0828C10.4034 14.7916 10.4066 15.5036 10.4034 16.2124C10.4002 16.7455 10.215 16.9467 9.6977 16.9499C8.33739 16.9563 6.97707 16.9531 5.61675 16.9499C5.10903 16.9467 4.91743 16.7519 4.91743 16.2475C4.91424 14.8012 4.91424 13.3581 4.91743 11.9118C4.91743 11.4106 5.11541 11.2126 5.61995 11.2094C6.98026 11.2062 8.34058 11.2062 9.7009 11.2094C10.2022 11.2094 10.4034 11.4138 10.4034 11.9118C10.4066 12.6397 10.4034 13.3613 10.4034 14.0828ZM6.067 12.3684C6.067 13.5401 6.067 14.6767 6.067 15.8101C7.1495 15.8101 8.20008 15.8101 9.24427 15.8101C9.24427 14.6479 9.24427 13.5113 9.24427 12.3684C8.17453 12.3684 7.13035 12.3684 6.067 12.3684Z" fill="#EE5B5B"/>
<path d="M4.91433 22.2968C4.91433 21.5753 4.91113 20.8505 4.91433 20.129C4.91752 19.6469 5.11231 19.4458 5.59129 19.4458C6.96438 19.4426 8.33747 19.4426 9.70737 19.4458C10.1895 19.4458 10.3971 19.6469 10.3971 20.1194C10.4003 21.5753 10.4003 23.0343 10.3971 24.4902C10.3971 24.9691 10.1959 25.1702 9.71376 25.1734C8.34067 25.1798 6.96758 25.1798 5.59768 25.1734C5.09315 25.1702 4.91433 24.9787 4.91113 24.4647C4.91113 23.7399 4.91433 23.0184 4.91433 22.2968ZM9.25074 24.04C9.25074 22.8843 9.25074 21.7477 9.25074 20.5887C8.17781 20.5887 7.13043 20.5887 6.0575 20.5887C6.0575 21.7477 6.0575 22.8843 6.0575 24.04C7.13043 24.04 8.1842 24.04 9.25074 24.04Z" fill="#EE5B5B"/>
<path d="M4.91353 30.4998C4.91353 29.7782 4.91034 29.0535 4.91353 28.332C4.91672 27.8722 5.11151 27.6743 5.57453 27.6743C6.96039 27.6711 8.34306 27.6711 9.72893 27.6743C10.2079 27.6743 10.3995 27.8754 10.3995 28.3639C10.4027 29.807 10.4027 31.2533 10.3995 32.6996C10.3995 33.2008 10.1983 33.3956 9.69699 33.3956C8.3239 33.3987 6.95081 33.3987 5.58091 33.3956C5.1179 33.3956 4.91992 33.1976 4.91672 32.7411C4.91034 31.9908 4.91353 31.2437 4.91353 30.4998ZM9.25313 32.2622C9.25313 31.1032 9.25313 29.9666 9.25313 28.8045C8.1834 28.8045 7.13283 28.8045 6.05671 28.8045C6.05671 29.9634 6.05671 31.1 6.05671 32.2622C7.12963 32.2622 8.18021 32.2622 9.25313 32.2622Z" fill="#EE5B5B"/>
<path d="M18.0861 13.3012C16.3299 13.3012 14.5704 13.3012 12.8141 13.298C12.6736 13.298 12.4852 13.3076 12.4022 13.2278C12.2585 13.0937 12.0829 12.8798 12.102 12.717C12.1212 12.5382 12.3192 12.3498 12.482 12.2221C12.5778 12.1487 12.7598 12.1774 12.9035 12.1774C16.3714 12.1742 19.8392 12.1774 23.3039 12.1774C23.3646 12.1774 23.4252 12.1742 23.4859 12.1806C23.8723 12.203 24.115 12.4169 24.1214 12.7329C24.1277 13.065 23.8691 13.298 23.4699 13.3012C22.4705 13.3044 21.471 13.3044 20.4715 13.3044C19.6732 13.3012 18.8781 13.3012 18.0861 13.3012Z" fill="#EE5B5B"/>
<path d="M16.8182 28.6219C18.1785 28.6219 19.5388 28.6187 20.8959 28.6251C21.3462 28.6283 21.6144 28.9124 21.5346 29.2955C21.4643 29.6372 21.2088 29.7489 20.8895 29.7521C20.385 29.7553 19.8773 29.7521 19.3727 29.7521C17.2556 29.7521 15.1385 29.7521 13.0182 29.7521C12.9224 29.7521 12.8266 29.7553 12.7308 29.7521C12.3253 29.7361 12.073 29.5127 12.0762 29.1838C12.0794 28.8486 12.3317 28.6283 12.7372 28.6251C14.0975 28.6187 15.4578 28.6219 16.8182 28.6219Z" fill="#EE5B5B"/>
<path d="M16.7905 21.5257C15.5036 21.5257 14.2135 21.5257 12.9267 21.5257C12.8181 21.5257 12.7095 21.5353 12.601 21.5193C12.288 21.4746 12.0996 21.2927 12.0773 20.9734C12.0581 20.6797 12.2912 20.4274 12.6137 20.4051C12.9267 20.3859 13.2396 20.3987 13.5525 20.3987C15.9219 20.3987 18.2945 20.3987 20.6639 20.3987C20.7724 20.3987 20.881 20.3923 20.9896 20.4019C21.3313 20.4306 21.5388 20.6413 21.5452 20.951C21.5516 21.2767 21.3345 21.497 20.98 21.5257C20.8842 21.5353 20.7884 21.5289 20.6926 21.5289C19.3898 21.5257 18.0901 21.5257 16.7905 21.5257Z" fill="#EE5B5B"/>
<path d="M15.3527 24.3467C14.5001 24.3467 13.6443 24.3499 12.7917 24.3467C12.3351 24.3435 12.0668 24.1232 12.0764 23.7657C12.086 23.4241 12.3478 23.2133 12.7853 23.2133C14.5033 23.2101 16.2244 23.2101 17.9424 23.2133C18.415 23.2133 18.6577 23.4209 18.6513 23.7944C18.6417 24.1456 18.399 24.3435 17.952 24.3467C17.0834 24.3499 16.218 24.3467 15.3527 24.3467Z" fill="#EE5B5B"/>
<path d="M15.3941 31.4409C16.2467 31.4409 17.1024 31.4377 17.955 31.4409C18.4053 31.4409 18.6448 31.6388 18.6512 31.9932C18.6543 32.3508 18.4149 32.5679 17.9742 32.5711C16.2307 32.5775 14.4872 32.5775 12.7437 32.5711C12.3349 32.5711 12.0827 32.3444 12.0763 32.0124C12.0699 31.6676 12.3317 31.4441 12.7596 31.4409C13.6378 31.4409 14.5159 31.4409 15.3941 31.4409Z" fill="#EE5B5B"/>
<path d="M15.3466 16.1202C14.4557 16.1202 13.5679 16.1202 12.677 16.1202C12.3928 16.1202 12.147 15.9957 12.1214 15.7148C12.1022 15.52 12.2076 15.2902 12.3258 15.1209C12.3864 15.0315 12.5844 15.0092 12.7217 15.0092C14.4876 15.0028 16.2566 15.0028 18.0225 15.006C18.4248 15.006 18.6452 15.2103 18.6516 15.5456C18.658 15.8936 18.4217 16.1171 18.0161 16.1171C17.1252 16.1234 16.2343 16.1202 15.3466 16.1202Z" fill="#EE5B5B"/>
</svg>
